<?xml version="1.0" encoding="UTF-8" standalone="no"?>
<svg
   width="96"
   height="96"
   viewBox="0 0 96 96"
   version="1.1"
   id="svg1"
   xmlns="http://www.w3.org/2000/svg"
   xmlns:svg="http://www.w3.org/2000/svg">
  <defs
     id="defs1" />
  <path
     d="M35.5 29H32C30.8954 29 30 29.8954 30 31L30 66C30 67.1046 30.8954 68 32 68H35.5C36.6046 68 37.5 67.1046 37.5 66L37.5 54.0428C37.5 52.486 39.2004 51.5261 40.5333 52.3305L63.4667 66.1695C64.7996 66.9739 66.5 66.014 66.5 64.4572V32.5428C66.5 30.986 64.7996 30.0261 63.4667 30.8305L40.5333 44.6695C39.2004 45.4739 37.5 44.514 37.5 42.9572V31C37.5 29.8954 36.6046 29 35.5 29Z"
     id="path1" stroke-width="0" />
</svg>
