<?xml version="1.0" encoding="UTF-8" standalone="no"?>
<svg
   width="96"
   height="96"
   viewBox="0 0 96 96"
   version="1.1"
   id="svg1"
   xmlns="http://www.w3.org/2000/svg"
   xmlns:svg="http://www.w3.org/2000/svg">
  <defs
     id="defs1" />
  <path
     d="M61 68L64.5 68C65.6046 68 66.5 67.1046 66.5 66L66.5 31C66.5 29.8954 65.6046 29 64.5 29L61 29C59.8954 29 59 29.8954 59 31L59 42.9572C59 44.514 57.2996 45.4739 55.9667 44.6695L33.0333 30.8305C31.7004 30.0261 30 30.986 30 32.5428L30 64.4572C30 66.014 31.7004 66.9739 33.0333 66.1695L55.9667 52.3305C57.2996 51.5261 59 52.486 59 54.0428L59 66C59 67.1046 59.8954 68 61 68Z"
     id="path1" stroke-width="0" />
</svg>
