<?xml version="1.0" encoding="UTF-8" standalone="no"?>
<svg
   width="96"
   height="96"
   viewBox="0 0 96 96"
   version="1.1"
   id="svg2"
   xmlns="http://www.w3.org/2000/svg"
   xmlns:svg="http://www.w3.org/2000/svg">
  <defs
     id="defs2" />
  <path
     d="M25.0001 47.2723C25.004 43.7995 26.4904 40.4707 29.1341 38.0145C31.7779 35.5587 35.3617 34.1779 39.1001 34.1743H66.6517L62.6802 30.4832C62.0673 29.9156 62.0673 28.9951 62.6802 28.4257C63.2913 27.8581 64.2821 27.8581 64.8951 28.4257L71.5417 34.6C71.8355 34.8729 72 35.244 72 35.6297C72 36.0153 71.8355 36.3864 71.5417 36.6593L64.8951 42.8336C64.2821 43.4012 63.2913 43.4012 62.6802 42.8336C62.0673 42.2642 62.0673 41.3437 62.6802 40.7761L66.6517 37.085H39.1001C36.192 37.0887 33.4055 38.162 31.349 40.0721C29.2928 41.9823 28.1374 44.5709 28.1334 47.2724C28.1334 48.0765 27.4324 48.7277 26.5668 48.7277C25.7012 48.7277 25.0001 48.0764 25.0001 47.2723ZM70.4332 47.2723C70.018 47.2723 69.6185 47.4251 69.3248 47.698C69.0311 47.9709 68.8666 48.342 68.8666 48.7276C68.8627 51.4291 67.7072 54.0176 65.651 55.9279C63.5947 57.838 60.808 58.9113 57.8999 58.915H30.3483L34.3198 55.2239C34.9327 54.6563 34.9327 53.7358 34.3198 53.1664C33.7087 52.5988 32.7179 52.5988 32.1049 53.1664L25.4582 59.3407C25.1645 59.6136 25 59.9847 25 60.3703C25 60.756 25.1645 61.1271 25.4582 61.4L32.1049 67.5743C32.7179 68.1419 33.7087 68.1419 34.3198 67.5743C34.9327 67.0049 34.9327 66.0844 34.3198 65.5168L30.3483 61.8257H57.8999C61.6383 61.8221 65.2218 60.4413 67.8659 57.9855C70.5096 55.5296 71.996 52.2005 71.9999 48.7277C71.9999 48.342 71.8354 47.9709 71.5416 47.6981C71.2479 47.4252 70.8484 47.2723 70.4332 47.2723Z"
     id="path1" />
  <circle
     cx="49"
     cy="74"
     r="4"
     id="circle1" />
  <path
     d="M46 47L49 44V53"
     stroke-width="2"
     stroke-linejoin="round"
     id="path2" />
</svg>
