<?xml version="1.0" encoding="UTF-8" standalone="no"?>
<svg
   width="96"
   height="96"
   viewBox="0 0 96 96"
   version="1.1"
   id="svg1"
   xmlns="http://www.w3.org/2000/svg"
   xmlns:svg="http://www.w3.org/2000/svg">
  <defs
     id="defs1" />
  <path
     d="M44.9149 51.5084C45.2478 51.7617 45.4672 52.1407 45.5259 52.5595C45.5847 52.9783 45.477 53.4031 45.2282 53.7422L43.1132 56.6141C40.444 60.222 36.2691 62.3478 31.8333 62.358H25.5667C24.7011 62.358 24 61.644 24 60.7625C24 59.8809 24.7011 59.1669 25.5667 59.1669H31.8333C35.2839 59.159 38.5306 57.5056 40.6066 54.6995L42.7216 51.8275C43.2406 51.1235 44.2216 50.9799 44.9149 51.5084ZM51.0231 44.8072C51.5166 44.8092 51.9827 44.5719 52.2784 44.169L54.3934 41.2971C56.4692 38.4909 59.716 36.8376 63.1667 36.8296H65.6518L62.7868 39.7454C62.493 40.0446 62.3266 40.4514 62.3266 40.8742C62.3266 41.299 62.4911 41.7059 62.7848 42.005C63.0786 42.3042 63.4781 42.4717 63.8952 42.4717C64.3103 42.4717 64.7098 42.3022 65.0036 42.003L70.5418 36.3628C70.8355 36.0636 71 35.6568 71 35.234C71 34.8112 70.8355 34.4043 70.5418 34.1052L65.0036 28.4649C64.3906 27.8447 63.3997 27.8447 62.7887 28.4669C62.1777 29.0892 62.1777 30.0983 62.7867 30.7226L65.6517 33.6384H63.1666C58.731 33.6484 54.5558 35.7744 51.8867 39.3823L49.7717 42.2542C49.4172 42.7389 49.3604 43.385 49.6248 43.9235C49.8892 44.464 50.4297 44.8052 51.0231 44.8072ZM65.0017 53.9934C64.3907 53.3731 63.3998 53.3731 62.7888 53.9954C62.1778 54.6176 62.1778 55.6268 62.7868 56.251L65.6518 59.1668H63.1667C59.7162 59.1589 56.4695 57.5055 54.3934 54.6994L43.1135 39.3824C40.4443 35.7745 36.2693 33.6487 31.8336 33.6385H25.5669C24.7013 33.6385 24.0003 34.3524 24.0003 35.234C24.0003 36.1155 24.7013 36.8295 25.5669 36.8295H31.8336C35.2841 36.8375 38.5308 38.4908 40.6068 41.297L51.8848 56.614H51.8867C54.5559 60.2219 58.7309 62.3477 63.1667 62.3579H65.6518L62.7868 65.2737C62.493 65.5729 62.3266 65.9797 62.3266 66.4025C62.3266 66.8273 62.4911 67.2342 62.7848 67.5333C63.0786 67.8325 63.4781 68 63.8952 68C64.3103 68 64.7098 67.8305 65.0036 67.5313L70.5418 61.8911C70.8355 61.5919 71 61.1851 71 60.7623C71 60.3395 70.8355 59.9326 70.5418 59.6334L65.0017 53.9934Z"
     id="path1" />
  <circle
     cx="48"
     cy="74"
     r="4"
     id="circle1" />
</svg>
