<svg width="28" height="31" viewBox="0 0 28 31" fill="none" xmlns="http://www.w3.org/2000/svg">
<path fill-rule="evenodd" clip-rule="evenodd" d="M15.4564 0.428719C14.4663 -0.142905 13.2465 -0.142905 12.2564 0.42872L1.59998 6.5812C0.609895 7.15282 -2.19345e-05 8.20923 -2.19345e-05 9.35248V21.6574C-2.19345e-05 22.8007 0.609895 23.8571 1.59998 24.4287L12.2564 30.5812C13.2465 31.1528 14.4663 31.1528 15.4564 30.5812L26.1128 24.4287C27.1029 23.8571 27.7128 22.8007 27.7128 21.6574V9.35248C27.7128 8.20923 27.1029 7.15282 26.1128 6.5812L15.4564 0.428719ZM13.8564 23.505C18.2747 23.505 21.8564 19.9232 21.8564 15.505C21.8564 11.0867 18.2747 7.50496 13.8564 7.50496C9.43811 7.50496 5.85638 11.0867 5.85638 15.505C5.85638 19.9232 9.43811 23.505 13.8564 23.505Z" fill="white"/>
</svg>
