<svg width="832" height="807" viewBox="0 0 832 807" fill="none" xmlns="http://www.w3.org/2000/svg">
<path d="M83.1614 750.846C83.1614 787.825 27.7205 787.825 27.7205 750.846C27.7205 713.901 83.1614 713.901 83.1614 750.846Z" fill="#242424"/>
<path d="M529.181 28.5967C529.181 65.5759 473.74 65.5759 473.74 28.5967C473.74 -8.34784 529.181 -8.34784 529.181 28.5967Z" fill="#242424"/>
<path d="M98.3389 78.0165C113.655 78.0165 126.059 93.3352 126.059 105.742V191.587C126.059 206.906 113.655 219.313 98.3389 219.313C83.023 219.313 70.6184 203.994 70.6184 191.587V105.742C70.6184 90.4233 83.023 78.0165 98.3389 78.0165Z" fill="#242424"/>
<path d="M341.587 806.332C265.148 806.332 202.985 744.158 202.985 667.705C202.985 591.252 265.148 529.077 341.587 529.077C418.026 529.077 480.189 591.252 480.189 667.705C480.189 744.158 418.026 806.332 341.587 806.332ZM341.587 584.528C295.744 584.528 258.426 621.854 258.426 667.705C258.426 713.556 295.744 750.881 341.587 750.881C387.43 750.881 424.748 713.556 424.748 667.705C424.748 621.854 387.43 584.528 341.587 584.528Z" fill="#242424"/>
<path d="M693.011 739.756C616.572 739.756 554.409 677.581 554.409 601.128C554.409 524.675 616.572 462.501 693.011 462.501C769.45 462.501 831.613 524.675 831.613 601.128C831.613 677.581 769.45 739.756 693.011 739.756ZM693.011 517.952C647.168 517.952 609.85 555.277 609.85 601.128C609.85 646.98 647.168 684.305 693.011 684.305C738.854 684.305 776.173 646.98 776.173 601.128C776.173 555.277 738.854 517.952 693.011 517.952Z" fill="#242424"/>
<path d="M138.602 545.642C62.163 545.642 0 483.467 0 407.014C0 330.561 62.163 268.386 138.602 268.386C215.041 268.386 277.204 330.561 277.204 407.014C277.204 483.467 215.041 545.642 138.602 545.642ZM138.602 323.837C92.7593 323.837 55.4409 361.163 55.4409 407.014C55.4409 452.865 92.7593 490.191 138.602 490.191C184.445 490.191 221.764 452.865 221.764 407.014C221.764 361.163 184.445 323.837 138.602 323.837Z" fill="#242424"/>
<path d="M480.189 667.705H424.748V315.178C424.748 268.045 452.781 225.623 496.129 207.115L677.212 129.9C711.585 115.206 750.671 118.775 781.822 139.396C812.973 159.982 831.581 194.57 831.581 231.933V601.095H776.14V231.933C776.14 212.975 767.062 196.097 751.261 185.666C735.46 175.2 716.367 173.467 698.939 180.918L517.855 258.133C494.952 267.907 480.155 290.295 480.155 315.179V667.705L480.189 667.705Z" fill="#242424"/>
<path d="M441.656 420.464L793.009 270.569L814.769 321.584L463.416 471.479L441.656 420.464Z" fill="#242424"/>
<path d="M392.034 155.266C313.1 142.443 288.151 66.3052 280.495 26.4781C277.793 12.5115 265.839 2.28723 251.597 2.28723H251.077C234.861 2.28723 221.728 15.4225 221.728 31.6417V414.112H277.169L277.134 157.653C302.014 183.923 336.803 204.37 384.583 210.609C401.146 212.758 415.803 199.381 415.803 182.711C415.803 168.917 405.617 157.484 392.034 155.266Z" fill="#242424"/>
<path d="M452.469 667.705C452.469 728.943 402.849 778.607 341.587 778.607C280.36 778.607 230.705 728.943 230.705 667.705C230.705 606.467 280.36 556.803 341.587 556.803C402.849 556.803 452.469 606.467 452.469 667.705Z" fill="#242424"/>
<path d="M803.893 601.128C803.893 662.401 754.238 712.03 693.011 712.03C631.784 712.03 582.129 662.401 582.129 601.128C582.129 539.89 631.784 490.226 693.011 490.226C754.238 490.226 803.893 539.89 803.893 601.128Z" fill="#242424"/>
<path d="M249.484 407.014C249.484 468.252 199.829 517.916 138.602 517.916C77.3751 517.916 27.7205 468.252 27.7205 407.014C27.7205 345.741 77.3751 296.112 138.602 296.112C199.829 296.112 249.484 345.741 249.484 407.014Z" fill="#242424"/>
<path d="M452.469 445.936L803.893 296.112V235.324C803.893 173.531 740.829 131.803 683.963 155.959L504.956 232.031C473.147 245.547 452.494 276.808 452.494 311.395V445.933L452.469 445.936Z" fill="#242424"/>
</svg>
